<svg viewBox="0 0 960 960" version="1.1" xmlns="http://www.w3.org/2000/svg" style="fill-rule:evenodd;clip-rule:evenodd;stroke-linejoin:round;stroke-miterlimit:2;">
    <style>
        #pr-logo {
            fill: #000;
        }
        @media (prefers-color-scheme: dark) {
            #pr-logo {
                fill: #fff;
            }
        }
    </style>
    <g>
        <g transform="matrix(30.5594,0,0,30.5594,12.6547,-16.7447)">
            <path d="M30.707,21.207L20.5,31.414L15.293,26.207L16.707,24.793L20.5,28.586L29.293,19.793L30.707,21.207Z" style="fill:rgb(52,208,88);"/>
        </g>
        <path d="M960,0L0,0L0,960L430.562,960L430.562,687.949L562.709,687.949L630.243,728.779L904.451,480L960,0Z" style="fill:none;"/>
        <clipPath id="_faviconClip">
            <path d="M960,0L0,0L0,960L430.562,960L430.562,687.949L562.709,687.949L630.243,728.779L904.451,480L960,0Z"/>
        </clipPath>
        <g clip-path="url(#_faviconClip)">
            <g transform="matrix(1,0,0,1,96,0)">
                <path id="pr-logo" d="M128,64C57.344,64 0,121.344 0,192C0,239.219 25.906,280.062 64,302.281L64,721.75C25.906,743.938 0,784.75 0,832C0,902.625 57.344,960 128,960C198.656,960 256,902.625 256,832C256,784.75 230.156,743.938 192,721.75L192,302.281C230.156,280.062 256,239.219 256,192C256,121.344 198.656,64 128,64ZM128,896C92.688,896 64,867.375 64,832C64,796.688 92.688,768 128,768C163.406,768 192,796.688 192,832C192,867.375 163.406,896 128,896ZM128,256C92.688,256 64,227.406 64,192C64,156.594 92.688,128 128,128C163.406,128 192,156.594 192,192C192,227.406 163.406,256 128,256ZM704,721.75L704,320C704,127.5 512,128 512,128L448,128L448,0L256,192L448,384L448,256L512,256C568.438,256 576,320 576,320L576,721.75C537.875,743.938 512,784.688 512,832C512,902.625 569.375,960 640,960C710.625,960 768,902.625 768,832C768,784.75 742.125,743.938 704,721.75ZM640,896C604.688,896 576,867.375 576,832C576,796.688 604.688,768 640,768C675.375,768 704,796.688 704,832C704,867.375 675.375,896 640,896Z" />
            </g>
        </g>
    </g>
</svg>
